PathFileType	4	(X/Y/Z)	pose_F01_0-96.trc
DataRate	CameraRate	NumFrames	NumMarkers	Units	OrigDataRate	OrigDataStartFrame	OrigNumFrames
30	30	10	21	m	30	24	96
Frame#	Time	CHip			RHip			RKnee			RAnkle			RBigToe			RSmallToe			RHeel			LHip			LKnee			LAnkle			LBigToe			LSmallToe			LHeel			Neck			Nose			RShoulder			RElbow			RWrist			LShoulder			LElbow			LWrist			
		X1	Y1	Z1	X2	Y2	Z2	X3	Y3	Z3	X4	Y4	Z4	X5	Y5	Z5	X6	Y6	Z6	X7	Y7	Z7	X8	Y8	Z8	X9	Y9	Z9	X10	Y10	Z10	X11	Y11	Z11	X12	Y12	Z12	X13	Y13	Z13	X14	Y14	Z14	X15	Y15	Z15	X16	Y16	Z16	X17	Y17	Z17	X18	Y18	Z18	X19	Y19	Z19	X20	Y20	Z20	X21	Y21	Z21	
24	0.8	-0.18774490801566465	1.8710772854810993	-0.5640187070501717	-0.20512647556374702	1.8695390887586787	-0.50155236559769	-0.1877378304055887	1.72169595449302	-0.4844419326363901	-0.17912277529669812	1.5709974851428699	-0.4730770335477462							-0.1722163945280395	1.5590646547950355	-0.47455603151021386	-0.17045368768263702	1.87328282864884	-0.6212457896740283	-0.16356919802599829	1.7192416764282963	-0.6024432121343721	-0.162978011857684	1.5746521460815575	-0.5643639601631384	-0.19777045979498106	1.5340255901542206	-0.5972803221185673	-0.18156584308203388	1.5421879884126932	-0.6139274675050971	-0.158714543342312	1.558612244366845	-0.558543115616819	-0.17402344506066347	2.0414061941796557	-0.5743533922173789	-0.2070431243591551	2.113299428627651	-0.6010900191958413	-0.1946874038902796	2.038531783622255	-0.49735513045427115	-0.1858980703796534	1.949034957672633	-0.446477815622772	-0.20627009367924473	1.863620213521579	-0.4013033668032079	-0.1510335254071491	2.045381849008442	-0.6601480348729852	-1.4982822686101003	1.8745186786649457	0.7585541148148923	-0.11489347430555472	1.895342993661255	-0.7522698914629409
25	0.8333333333333334	-0.18466811265459923	1.8720262654810624	-0.5633799294669158	-0.20287890952488868	1.86951147725664	-0.503493548384638	-0.18754831680182332	1.7201755322174763	-0.4845900360965582	-0.18012886450925575	1.5711466485950931	-0.47635322437757033							-0.1722100035069629	1.55631545346715	-0.47431723150127825	-0.17020008645166204	1.8741729190429688	-0.6214764605502917	-0.16127042886016404	1.7206322421771494	-0.6050487638392649	-0.16097999288409578	1.5721378087502382	-0.5662539105597543	-0.20217745188509195	1.5341916971174352	-0.59282954985929	-0.18617126044540805	1.5405150020630254	-0.6087938408250395	-0.1567303044036705	1.5567977372333017	-0.5602623101200659	-0.17406708124391215	2.0413382883781463	-0.5742903284867856	-0.20704638518047033	2.113244029669937	-0.6011422676061838	-0.1965933624173609	2.037185762630171	-0.49467125467581813	-0.19232321580826267	1.9469921813147684	-0.44994601391396016	-0.2085917801479025	1.8607707211781328	-0.4166004529437455	-0.15304531802153556	2.044159734940585	-0.6575765395105124	-1.4938254735975172	1.8741625679192346	0.7520852080648366	-0.11457708896435473	1.897498323258165	-0.7564718072358431
26	0.8666666666666667	-0.1874602337318283	1.8707135581729522	-0.5639889173736942	-0.20294646488007326	1.8695301102714144	-0.5035730703540486	-0.18735638501836896	1.718902259582689	-0.48454584648599763	-0.17902506795666676	1.5706336239645646	-0.47308949839336967							-0.17234145097772685	1.5573495268649356	-0.4739494083281405	-0.17021472390192274	1.8733990739449862	-0.6212675875206547	-0.1652497940736149	1.7185649654097215	-0.6005850945353063	-0.1607436256923751	1.5734674040561378	-0.5667242561486348	-0.20091133730580918	1.5341539249043004	-0.5983839829068762	-0.18492317061764113	1.5406573099552574	-0.6142980432854946	-0.15662867592226035	1.5585801747495505	-0.5607480039924473	-0.17585110152256778	2.0416649942838	-0.5804207861852316	-0.20706422599240568	2.113234526694044	-0.6011110621901828	-0.1966639566255052	2.037055232250825	-0.4947719392947064	-0.19874836123687192	1.944949404956904	-0.4534142122051484	-0.21091346661656027	1.857921228834687	-0.431897539084283	-0.15306008904692797	2.0445375926325977	-0.6575880388368648	-1.4893686785849338	1.8738064571735236	0.7456163013147808	-0.11426070362315474	1.8996536528550751	-0.7606737230087454
27	0.9	-0.18657168601785973	1.8736114871382388	-0.5612551878009411	-0.2038644675344016	1.8724042747124545	-0.4985660124455315	-0.18758696044362214	1.7203914419093997	-0.48457673094018466	-0.18127189448884762	1.5690067104777898	-0.47026513725487373							-0.1723296349156927	1.556511755602224	-0.4741826091977662	-0.17219286674034961	1.8761888562735485	-0.6192942765806447	-0.16338039782931316	1.7204064315276413	-0.602768001873554	-0.1637200872038389	1.5734823517269763	-0.5678988919633489	-0.20111845757704114	1.532517910581653	-0.5977587387272123	-0.18492456942876212	1.5407143450596028	-0.6143028712840352	-0.15828551317529602	1.5591576119635702	-0.5591752835139745	-0.1749727851743068	2.0415887868078793	-0.5773131504803666	-0.20904483977523755	2.1132194941205484	-0.5990323541253991	-0.1966754204945953	2.038382331327844	-0.4953045473831153	-0.1967562844345306	1.9494764102517923	-0.43841816239198284	-0.2219772715909425	1.8695673362605059	-0.39233426377452374	-0.1531045576057642	2.0454064864117556	-0.6578725500982356	-1.4849118835723507	1.8734503464278127	0.7391473945647251	-0.11394431828195475	1.9018089824519853	-0.7648756387816475
28	0.9333333333333333	-0.18576612411565294	1.8714292576084015	-0.5662664767383712	-0.20322212082959829	1.8699467693547156	-0.5036700163584532	-0.18889797677251463	1.720445919168193	-0.487438220082376	-0.18119451986266327	1.5688532691962733	-0.4702075638952663							-0.17228632183965967	1.5564995860715427	-0.4741357370033355	-0.17129751581002803	1.87375138396407	-0.6245185673730049	-0.16332433759779666	1.7207088617170796	-0.602865558272696	-0.16256965196305154	1.5747093567070094	-0.5651268746747256	-0.1999317606090891	1.5340959872795803	-0.5950773755812412	-0.18372165758207615	1.5420597142270556	-0.6116298814260541	-0.15829472864095517	1.5589875990831343	-0.5590600402751171	-0.17586781601345403	2.041833664417506	-0.5804992062820997	-0.20911499017350454	2.113148962682604	-0.5990473706636803	-0.19671099843380532	2.0384700435713374	-0.4952544569752911	-0.19767046572173508	1.9528359586800237	-0.4250469419808846	-0.22972003368560245	1.8776533077771236	-0.36116631340912925	-0.1538005269907607	2.047068762216558	-0.6609633588062162	-1.4804550885597676	1.8730942356821016	0.7326784878146694	-0.11362793294075477	1.9039643120488954	-0.7690775545545497
29	0.9666666666666667	-0.18757516208393055	1.872285765257039	-0.5641858415151078	-0.2031560893710503	1.8696250354363506	-0.50366117674542	-0.18754726264944896	1.7203504842861435	-0.484479522937723	-0.17888394396296126	1.5698495371656964	-0.4729666954661845							-0.1720053621965713	1.5553979211350841	-0.47412381896625533	-0.17035780585459068	1.8748112293345731	-0.6214028978295875	-0.16314882654284385	1.721731957383545	-0.6032085533380904	-0.16298099900224827	1.5747068858810747	-0.56429926569115	-0.2021989058751077	1.5326744681212474	-0.6009680916927433	-0.1870220503054992	1.540464528642926	-0.6121778815798875	-0.1575715161346579	1.5599141630151785	-0.556020732313282	-0.1749924595284941	2.0416107687156	-0.5773556595878236	-0.2091185372477564	2.113197620234362	-0.599025530667177	-0.19675888694647753	2.037168846753096	-0.4953588670495949	-0.19975244107782753	1.9580428762877213	-0.4238245902671156	-0.23774195378733504	1.8916452521980287	-0.33196614608491176	-0.15306680484996027	2.0467199635951165	-0.6578648477551251	-1.4909096435467941	1.8737513763426592	0.7558515652028424	-0.10254033247853933	1.9183619898011977	-0.7863808211885389
30	1.0	-0.18761853786603264	1.8723351943806497	-0.5643807634482154	-0.20414560437817653	1.8694591430946923	-0.5069529366271833	-0.18874516907644945	1.721854451372715	-0.4878654634564148	-0.17897301715270839	1.5702279181855572	-0.4729760829289273							-0.1722342916593241	1.556785567284775	-0.4738690008465731	-0.1720389947646094	1.8749095389880515	-0.627788085772642	-0.16130383671225745	1.7206974273809805	-0.6050793376314185	-0.16090904606223	1.5747172535730254	-0.5664909144527094	-0.19996188445370894	1.5340823239802364	-0.595064301005014	-0.1837150265983846	1.541989561523075	-0.6116059639737245	-0.15542544809894626	1.5596346453566092	-0.5582124708626137	-0.17497981310828056	2.041648039128211	-0.5773916556132631	-0.20914749853239498	2.113171455461675	-0.5990252896788021	-0.1948344174723146	2.0397592885744213	-0.49792185059685634	-0.19890057760816415	1.9606426735066576	-0.42176264604784486	-0.23502918311552587	1.9038190590312565	-0.33304977986204515	-0.15306915333173154	2.0464225051960345	-0.6578212822710647	-1.4984734320238002	1.8744076181796543	0.7698868457591346	-0.10323463710841059	1.922003020190218	-0.7899794150507558
31	1.0333333333333334	-0.18795832803452886	1.8742738862848545	-0.5646029555463982	-0.20430659584429678	1.8726747574228437	-0.5073054006382466	-0.18700439991865336	1.7237774805812147	-0.48998063279945986	-0.17915046748332766	1.5710612040419243	-0.4730816905694703							-0.17244116112648486	1.5601067991633928	-0.47453909046850884	-0.1723232747371764	1.875526381534058	-0.6278299969944889	-0.1638851082433443	1.7209884733044474	-0.6023526723147609	-0.16303563863836512	1.574658921336032	-0.5642827833216015	-0.1999610735960118	1.5344569100543877	-0.595071444657546	-0.1836605931646124	1.542043388946149	-0.6116539236484468	-0.16052546648255775	1.559688996416352	-0.5568870913516563	-0.17665913695657579	2.0430373722758133	-0.5835062263364161	-0.20915984658677259	2.11316090373671	-0.5990708451047171	-0.19560609597170525	2.039848828675669	-0.5004100582601309	-0.19821938515638451	1.9608131242297158	-0.42764204022342567	-0.23405010914046043	1.9072540929743949	-0.3392001514648581	-0.1546625667758825	2.0472618462778964	-0.6639276386703522	-1.4814426831096026	1.8749518854637466	0.7391920745223054	-0.10560328460397635	1.9230367982485521	-0.7876017442156833
32	1.0666666666666667	-0.18778630940179505	1.8711227194893043	-0.5641190341418304	-0.20410323927755605	1.869611065558762	-0.5068570864904514	-0.18873314973974203	1.7218527593843505	-0.4878912176427987	-0.17907486978959747	1.57089207470057	-0.47310562592037353							-0.1725728436423879	1.558428812771778	-0.4739349815220501	-0.1713983318657507	1.8736391094033733	-0.6244279655914122	-0.16338706237792386	1.7204489246625574	-0.6028124389083516	-0.16075754810838866	1.573463098620751	-0.5667120061809596	-0.19875742047521913	1.5340596623329856	-0.6005220537773742	-0.18367503989934406	1.5420960149399532	-0.6117246143116882	-0.15849589134998657	1.5599946931266941	-0.5591044610139136	-0.17586705647463544	2.0418418112233225	-0.5805756862218521	-0.21114904201500725	2.1118495279458758	-0.5964376152111217	-0.19573154207146076	2.0399107804457848	-0.5011237892719231	-0.19528474908821006	1.958508799394959	-0.43493760130031917	-0.23812570113142292	1.9028161987842773	-0.34300628586524007	-0.15309225565268855	2.046534040882909	-0.6578646124518439	-1.491107110678511	1.8738488714373707	0.7561089225287515	-0.11284772528953495	1.9174828941601727	-0.7802336140672269
33	1.1	-0.1875216865285036	1.8738041897401438	-0.5645995965432531	-0.2039926528903934	1.8706462825261572	-0.5072240812816959	-0.18741941011203814	1.7217940183873008	-0.48493619737508986	-0.18094835652605346	1.5702132887117735	-0.4707384402730919							-0.172435250227665	1.5575913524133864	-0.47381571046034476	-0.17486520558859311	1.8765154493658696	-0.6289716636903392	-0.16315809452499788	1.7218239961502404	-0.603245476396738	-0.161994709211427	1.574462805135508	-0.5610577179574506	-0.19803443983875543	1.535485886317328	-0.5969602872297544	-0.1836808343290998	1.5421319258621733	-0.6116644509553133	-0.1574057827610903	1.5591798277285425	-0.5558902433237543	-0.17586425712104967	2.0417268883304387	-0.5805304582806129	-0.21198558151695876	2.1120492484608984	-0.5992323817606967	-0.19558412109629938	2.039901411650369	-0.5005566479251352	-0.19426383607268166	1.9547563407539617	-0.4395971547234291	-0.23638399497285448	1.8972467146185759	-0.36747305422171744	-0.15319001022792533	2.0451214379259697	-0.6578508171182529	-1.4928345452399814	1.872025421223047	0.7573461863640759	-0.1223452634100375	1.9082995817337083	-0.7694346786613698
